<svg width="126" height="126" viewBox="0 0 126 126" fill="none" xmlns="http://www.w3.org/2000/svg">
<path d="M124.576 124.779L105.388 124.287C97.0789 124.287 89.8082 124.724 83.5762 125.599C82.9202 124.724 82.5922 123.795 82.5922 122.811L82.9202 121.499C87.1842 120.515 90.1362 119.422 91.7762 118.219C93.5256 116.907 94.4002 115.486 94.4002 113.955C94.4002 112.424 93.6349 109.363 92.1042 104.771L82.4282 80.1711C76.5242 79.8431 69.4722 79.6791 61.2722 79.6791L37.8202 80.1711L33.7202 90.6671C28.2536 104.224 25.5202 113.846 25.5202 119.531C28.0349 119.64 31.8616 119.695 37.0002 119.695C37.2189 120.46 37.3282 121.335 37.3282 122.319C37.3282 123.303 37.2189 124.123 37.0002 124.779L19.6162 124.287C12.7282 124.287 6.7149 124.724 1.57623 125.599C0.920234 124.834 0.592234 123.904 0.592234 122.811L0.920234 121.499C6.49623 119.968 10.5416 117.563 13.0562 114.283C15.6802 111.003 19.5616 103.568 24.7002 91.9791L65.2082 0.139105H67.8322L105.552 96.5711C106.208 98.6484 107.903 102.694 110.636 108.707C113.479 114.611 115.283 118.11 116.048 119.203C119.11 119.531 121.952 119.695 124.576 119.695C124.904 120.46 125.068 121.335 125.068 122.319C125.068 123.303 124.904 124.123 124.576 124.779ZM40.2802 73.7751L61.2722 74.4311C68.8162 74.4311 75.1576 74.2671 80.2962 73.9391L61.2722 23.7551L40.2802 73.7751Z" fill="white"/>
</svg>
