<svg width="123" height="128" viewBox="0 0 123 128" fill="#ffffff" xmlns="http://www.w3.org/2000/svg">
<path d="M85.0047 62.4409C91.6895 63.6346 97.3597 67.1561 102.015 73.0053C106.671 78.8545 108.998 85.4796 108.998 92.8806C108.998 99.2073 107.327 104.937 103.985 110.07C100.762 115.084 96.0466 119.083 89.8393 122.067C83.632 124.932 76.41 126.364 68.1734 126.364H18.3955V1.91961H65.8456C74.321 1.91961 81.6027 3.35207 87.6906 6.21699C93.7785 9.0819 98.3743 12.9615 101.478 17.8557C104.582 22.6305 106.133 28.0023 106.133 33.9708C106.133 41.1331 104.224 47.1017 100.404 51.8765C96.5838 56.6514 91.4508 60.1728 85.0047 62.4409ZM38.808 54.2043H64.0551C70.7399 54.2043 75.9325 52.7121 79.633 49.7278C83.4529 46.6242 85.3629 42.2074 85.3629 36.4776C85.3629 30.8672 83.4529 26.5101 79.633 23.4065C75.9325 20.1834 70.7399 18.5719 64.0551 18.5719H38.808V54.2043ZM66.3828 109.712C73.3064 109.712 78.7377 108.041 82.677 104.698C86.6163 101.356 88.5859 96.7005 88.5859 90.7319C88.5859 84.644 86.4969 79.8094 82.3189 76.2283C78.1409 72.6471 72.5901 70.8566 65.6666 70.8566H38.808V109.712H66.3828Z" fill="white"/>
</svg>
