<svg width="94" height="121" viewBox="0 0 94 121" fill="none" xmlns="http://www.w3.org/2000/svg">
<path d="M2.72155 0.715101L27.6495 1.2071H52.9056C63.2922 1.2071 71.6562 3.5031 77.9975 8.0951C84.4482 12.6871 87.6736 19.4111 87.6736 28.2671C87.6736 35.3738 85.2682 41.3871 80.4575 46.3071C75.6469 51.2271 70.6722 54.3431 65.5335 55.6551C74.4989 57.2951 81.4415 60.7938 86.3615 66.1511C91.3909 71.5084 93.9056 78.5058 93.9056 87.1431C93.9056 97.2018 89.4776 105.074 80.6216 110.759C71.8749 116.444 60.9416 119.287 47.8215 119.287C23.8775 119.287 8.35221 119.724 1.24555 120.599C0.69888 119.943 0.425547 119.014 0.425547 117.811L0.589547 116.499C6.27488 115.187 9.99221 113.164 11.7415 110.431C13.1629 108.244 14.0922 105.511 14.5295 102.231C15.8415 92.2818 16.4975 78.7244 16.4975 61.5591C16.4975 25.5884 15.5135 7.2751 13.5455 6.6191C11.4682 6.07244 7.86021 5.7991 2.72155 5.7991C2.50288 5.03377 2.39355 4.1591 2.39355 3.17511C2.39355 2.19111 2.50288 1.37111 2.72155 0.715101ZM30.6015 58.2791V91.0791C30.6015 101.356 30.9295 108.572 31.5855 112.727C35.5215 113.164 40.1135 113.383 45.3615 113.383C56.6229 113.383 64.9869 111.47 70.4535 107.643C76.0295 103.816 78.8175 97.6391 78.8175 89.1111C78.8175 80.4738 76.0842 73.3124 70.6176 67.6271C65.1509 61.9418 58.0442 59.0991 49.2975 59.0991H42.4095C41.7536 58.3338 41.4256 57.4044 41.4256 56.3111L42.4095 53.0311H47.1656C64.6589 53.0311 73.4056 45.4324 73.4056 30.2351C73.4056 22.6911 71.1096 16.9511 66.5176 13.0151C61.9256 8.96977 55.8576 6.9471 48.3136 6.9471C40.8789 6.9471 35.6309 7.16577 32.5695 7.6031C31.2575 12.8511 30.6015 29.7431 30.6015 58.2791Z" fill="white"/>
</svg>
