<svg width="125" height="128" viewBox="0 0 125 128" fill="none" xmlns="http://www.w3.org/2000/svg">
<path d="M0.895367 63.8734C0.895367 51.6975 3.70059 40.775 9.31105 31.1059C15.0409 21.4368 22.7403 13.9164 32.4094 8.54472C42.1979 3.05363 52.8816 0.308094 64.4606 0.308094C77.7108 0.308094 89.4689 3.59081 99.7349 10.1562C110.12 16.6023 117.641 25.7939 122.296 37.731H97.7652C94.5422 31.1656 90.0658 26.2714 84.3359 23.0483C78.6061 19.8253 71.981 18.2138 64.4606 18.2138C56.224 18.2138 48.8827 20.0641 42.4366 23.7646C35.9905 27.4651 30.9173 32.7771 27.2168 39.7006C23.6356 46.6242 21.845 54.6818 21.845 63.8734C21.845 73.0649 23.6356 81.1225 27.2168 88.046C30.9173 94.9696 35.9905 100.341 42.4366 104.161C48.8827 107.862 56.224 109.712 64.4606 109.712C71.981 109.712 78.6061 108.1 84.3359 104.877C90.0658 101.654 94.5422 96.7602 97.7652 90.1947H122.296C117.641 102.132 110.12 111.323 99.7349 117.77C89.4689 124.216 77.7108 127.439 64.4606 127.439C52.7622 127.439 42.0785 124.753 32.4094 119.381C22.7403 113.89 15.0409 106.31 9.31105 96.6408C3.70059 86.9717 0.895367 76.0492 0.895367 63.8734Z" fill="white"/>
</svg>
