<svg width="112" height="133" viewBox="0 0 112 133" fill="#ffffff" xmlns="http://www.w3.org/2000/svg">
<g filter="url(#filter0_d_3569_2066)">
<path d="M65.0392 124.28C46.2339 124.28 31.3646 118.431 20.4312 106.732C9.60722 94.924 4.19522 80.1093 4.19522 62.288C4.19522 44.3573 10.0992 29.5427 21.9072 17.844C33.7152 6.14533 48.8032 0.29599 67.1712 0.29599C81.7126 0.29599 94.6139 2.09999 105.875 5.708C106.422 6.03599 106.695 6.47333 106.695 7.01999C106.695 7.45733 106.531 9.15199 106.203 12.104C104.782 22.272 104.017 29.7067 103.907 34.408C102.267 34.736 101.119 34.9 100.463 34.9C99.8072 34.9 98.8232 34.6813 97.5112 34.244C96.5272 26.7 95.5432 21.0693 94.5592 17.352C91.7166 14.2907 87.7259 11.6667 82.5872 9.48C77.4486 7.29333 71.5992 6.19999 65.0392 6.19999C52.5752 6.19999 42.2432 10.5733 34.0432 19.32C25.9526 28.0667 21.9072 40.0387 21.9072 55.236C21.9072 65.9507 23.6566 76.0093 27.1552 85.412C30.7632 94.8147 36.0659 102.577 43.0632 108.7C50.1699 114.713 58.5886 117.72 68.3192 117.72C78.0499 117.72 86.6872 115.096 94.2312 109.848C96.3086 106.349 98.8779 100.5 101.939 92.3C104.563 92.3 106.586 92.8467 108.007 93.94C106.477 101.812 105.329 109.739 104.563 117.72C104.454 118.923 103.743 119.633 102.431 119.852C91.9352 122.804 79.4712 124.28 65.0392 124.28Z" fill="white"/>
</g>
<defs>
<filter id="filter0_d_3569_2066" x="0.195312" y="0.295898" width="111.812" height="131.984" filterUnits="userSpaceOnUse" color-interpolation-filters="sRGB">
<feFlood flood-opacity="0" result="BackgroundImageFix"/>
<feColorMatrix in="SourceAlpha" type="matrix" values="0 0 0 0 0 0 0 0 0 0 0 0 0 0 0 0 0 0 127 0" result="hardAlpha"/>
<feOffset dy="4"/>
<feGaussianBlur stdDeviation="2"/>
<feComposite in2="hardAlpha" operator="out"/>
<feColorMatrix type="matrix" values="0 0 0 0 0 0 0 0 0 0 0 0 0 0 0 0 0 0 0.25 0"/>
<feBlend mode="normal" in2="BackgroundImageFix" result="effect1_dropShadow_3569_2066"/>
<feBlend mode="normal" in="SourceGraphic" in2="effect1_dropShadow_3569_2066" result="shape"/>
</filter>
</defs>
</svg>
