<svg width="126" height="122" viewBox="0 0 126 122" fill="#ffffff" xmlns="http://www.w3.org/2000/svg">
<path d="M96.8929 62.5591L66.2249 61.7391C57.0409 61.7391 45.3422 62.0124 31.1289 62.5591V92.7351C31.1289 107.604 31.7849 115.094 33.0969 115.203C35.0649 115.531 38.7822 115.695 44.2489 115.695C44.4676 116.46 44.5769 117.335 44.5769 118.319C44.5769 119.303 44.4676 120.123 44.2489 120.779L28.0129 120.287C17.4076 120.287 8.66089 120.724 1.77289 121.599C1.22622 120.943 0.952891 120.014 0.952891 118.811L1.11689 117.499C6.80222 116.187 10.5196 114.164 12.2689 111.431C13.6902 109.244 14.6196 106.511 15.0569 103.231C16.3689 93.2818 17.0249 77.9204 17.0249 57.1471V29.7591C17.0249 14.8898 16.3689 7.40044 15.0569 7.29111C13.0889 6.96311 9.37156 6.7991 3.90489 6.7991C3.68622 6.03377 3.57689 5.1591 3.57689 4.17511C3.57689 3.19111 3.68622 2.37111 3.90489 1.7151C3.90489 1.7151 9.53556 1.8791 20.7969 2.2071C30.9649 2.2071 38.7822 1.76977 44.2489 0.895102C44.6862 1.76977 44.9049 3.13644 44.9049 4.99511C41.7342 5.76044 39.2742 7.01777 37.5249 8.76711C35.7756 10.4071 34.6822 11.9378 34.2449 13.3591C32.6049 18.6071 31.5662 32.6018 31.1289 55.3431C42.0622 55.7804 53.7609 55.9991 66.2249 55.9991L96.8929 55.3431V29.7591C96.8929 14.8898 96.2369 7.40044 94.9249 7.29111C92.8476 6.96311 89.1302 6.7991 83.7729 6.7991C83.4449 6.03377 83.2809 5.1591 83.2809 4.17511C83.2809 3.19111 83.4449 2.37111 83.7729 1.7151L100.665 2.2071C110.833 2.2071 118.596 1.76977 123.953 0.895102C124.39 1.8791 124.609 3.24577 124.609 4.99511C121.438 5.86977 118.978 7.1271 117.229 8.76711C115.48 10.4071 114.332 11.9924 113.785 13.5231C113.348 14.9444 113.02 16.8578 112.801 19.2631C111.489 30.8524 110.833 43.7538 110.833 57.9671V92.7351C110.833 107.604 111.489 115.094 112.801 115.203C114.878 115.531 118.924 115.695 124.937 115.695C125.156 116.46 125.265 117.335 125.265 118.319C125.265 119.303 125.156 120.123 124.937 120.779L107.881 120.287C96.1822 120.287 86.6702 120.724 79.3449 121.599C78.7982 120.943 78.5249 120.014 78.5249 118.811L78.6889 117.499C85.2489 115.968 89.4582 114.274 91.3169 112.415C93.2849 110.556 94.4876 107.495 94.9249 103.231C96.1276 92.0791 96.7836 78.5218 96.8929 62.5591Z" fill="white"/>
</svg>
