<svg width="93" height="122" viewBox="0 0 93 122" fill="#ffffff" xmlns="http://www.w3.org/2000/svg">
<path d="M67.9683 120.943L39.9243 120.287H29.1003C16.7457 120.287 7.61634 120.724 1.71234 121.599C1.16568 120.943 0.892344 120.014 0.892344 118.811L1.05634 117.499C6.74168 116.187 10.459 114.164 12.2083 111.431C13.6297 109.244 14.723 105.09 15.4883 98.9671C16.363 92.7351 16.8003 80.7631 16.8003 63.0511V29.9231C16.8003 14.9444 16.0897 7.40044 14.6683 7.29111C12.591 6.96311 9.31101 6.7991 4.82834 6.7991C4.50034 6.03377 4.33634 5.1591 4.33634 4.17511C4.33634 3.19111 4.50034 2.37111 4.82834 1.7151L20.5723 2.2071C30.631 2.2071 38.3937 1.76977 43.8603 0.895102C44.5163 1.76977 44.8443 2.64444 44.8443 3.51911L44.5163 4.99511C40.0337 6.19777 37.0817 7.72844 35.6603 9.58711C34.239 11.3364 33.3643 13.9058 33.0363 17.2951C31.7243 30.7431 31.0683 45.3391 31.0683 61.0831V92.0791C31.0683 102.356 31.3963 109.572 32.0523 113.727C35.9883 114.164 40.5803 114.383 45.8283 114.383C57.0897 114.383 68.2417 112.907 79.2843 109.955C81.0337 107.44 82.619 104.106 84.0404 99.9511C85.571 95.6871 86.5004 93.1178 86.8283 92.2431C87.375 92.1338 88.195 92.0791 89.2883 92.0791C90.3817 92.0791 91.5844 92.5711 92.8963 93.5551C92.459 95.8511 91.7483 100.662 90.7643 107.987C89.7803 115.312 89.179 119.084 88.9603 119.303C87.539 120.396 80.5417 120.943 67.9683 120.943Z" fill="white"/>
</svg>
