<svg width="128" height="128" viewBox="0 0 128 128" fill="none" xmlns="http://www.w3.org/2000/svg">
<path d="M63.7645 127.618C52.1855 127.618 41.5018 124.932 31.7133 119.56C22.0442 114.069 14.3448 106.489 8.61494 96.8198C3.00449 87.0314 0.199261 76.0492 0.199261 63.8734C0.199261 51.6975 3.00449 40.775 8.61494 31.1059C14.3448 21.4368 22.0442 13.9164 31.7133 8.54472C41.5018 3.05363 52.1855 0.308094 63.7645 0.308094C75.4629 0.308094 86.1466 3.05363 95.8157 8.54472C105.604 13.9164 113.304 21.4368 118.914 31.1059C124.525 40.775 127.33 51.6975 127.33 63.8734C127.33 76.0492 124.525 87.0314 118.914 96.8198C113.304 106.489 105.604 114.069 95.8157 119.56C86.1466 124.932 75.4629 127.618 63.7645 127.618ZM63.7645 109.891C72.0011 109.891 79.3425 108.041 85.7885 104.34C92.2346 100.52 97.2482 95.1486 100.829 88.2251C104.53 81.1822 106.38 73.0649 106.38 63.8734C106.38 54.6818 104.53 46.6242 100.829 39.7006C97.2482 32.7771 92.2346 27.4651 85.7885 23.7646C79.3425 20.0641 72.0011 18.2138 63.7645 18.2138C55.5279 18.2138 48.1865 20.0641 41.7405 23.7646C35.2944 27.4651 30.2212 32.7771 26.5206 39.7006C22.9395 46.6242 21.1489 54.6818 21.1489 63.8734C21.1489 73.0649 22.9395 81.1822 26.5206 88.2251C30.2212 95.1486 35.2944 100.52 41.7405 104.34C48.1865 108.041 55.5279 109.891 63.7645 109.891Z" fill="white"/>
</svg>
