<svg width="118" height="125" viewBox="0 0 118 125" fill="#ffffff" xmlns="http://www.w3.org/2000/svg">
<path d="M117.649 62.7391C117.649 70.3924 116.555 77.4444 114.369 83.8951C112.291 90.2364 109.613 95.4844 106.333 99.6391C103.162 103.684 99.4446 107.347 95.1806 110.627C90.9166 113.798 86.8166 116.258 82.8806 118.007C79.0539 119.647 75.1726 121.014 71.2366 122.107C65.4419 123.747 61.0686 124.567 58.1166 124.567C42.1539 124.567 28.5419 118.663 17.2806 106.855C6.01925 94.9378 0.388579 80.2324 0.388579 62.7391C0.388579 55.0858 1.42725 48.0884 3.50458 41.7471C5.69125 35.2964 8.36991 29.9938 11.5406 25.8391C14.8206 21.6844 18.5926 18.0218 22.8566 14.8511C27.1206 11.5711 31.2206 9.05644 35.1566 7.3071C39.0926 5.55777 42.9739 4.13644 46.8006 3.04311C52.4859 1.4031 56.9139 0.583099 60.0846 0.583099C75.9379 0.583099 89.4952 6.6511 100.757 18.7871C112.018 30.8138 117.649 45.4644 117.649 62.7391ZM63.2006 116.039C75.5552 116.039 84.9032 111.884 91.2446 103.575C97.6953 95.1564 100.921 84.3871 100.921 71.2671C100.921 61.0991 99.0619 51.3138 95.3446 41.9111C91.7366 32.5084 86.3792 24.6911 79.2726 18.4591C72.1659 12.1178 64.1846 8.9471 55.3286 8.9471C42.9739 8.9471 33.4619 13.2658 26.7926 21.9031C20.2326 30.4311 16.9526 41.0364 16.9526 53.7191C16.9526 63.8871 18.8112 73.7271 22.5286 83.2391C26.3552 92.6418 31.8766 100.459 39.0926 106.691C46.3086 112.923 54.3446 116.039 63.2006 116.039Z" fill="white"/>
</svg>
