<svg width="123" height="128" viewBox="0 0 123 128" fill="#ffffff" xmlns="http://www.w3.org/2000/svg">
<path d="M83.0556 126.364L54.4064 76.5864H38.8285V126.364H18.416V1.91961H61.3897C70.9394 1.91961 78.9969 3.59081 85.5624 6.9332C92.2472 10.2756 97.2011 14.752 100.424 20.3625C103.767 25.9729 105.438 32.2399 105.438 39.1635C105.438 47.2807 103.05 54.6818 98.2754 61.3666C93.6199 67.932 86.398 72.4084 76.6095 74.7958L107.407 126.364H83.0556ZM38.8285 60.2922H61.3897C69.0294 60.2922 74.7593 58.3823 78.5791 54.5624C82.5184 50.7425 84.488 45.6095 84.488 39.1635C84.488 32.7174 82.5781 27.7038 78.7582 24.1227C74.9383 20.4222 69.1488 18.5719 61.3897 18.5719H38.8285V60.2922Z" fill="white"/>
</svg>
