<svg width="111" height="123" viewBox="0 0 111 123" fill="#ffffff" xmlns="http://www.w3.org/2000/svg">
<path d="M2.29967 0.715101L27.2277 1.2071H46.7437C59.0983 1.2071 68.829 3.88577 75.9357 9.24311C83.0423 14.4911 86.5957 22.6911 86.5957 33.8431C86.5957 42.2618 84.3543 49.2044 79.8717 54.6711C75.4983 60.0284 69.485 63.8004 61.8317 65.9871C65.6583 72.6564 70.4143 80.2551 76.0997 88.7831C81.8943 97.3111 86.541 103.598 90.0397 107.643C93.6477 111.579 96.6543 113.766 99.0597 114.203C101.465 114.531 105.182 114.695 110.212 114.695C110.43 115.57 110.54 116.444 110.54 117.319C110.54 118.084 110.43 118.904 110.212 119.779C102.23 120.216 95.9983 120.763 91.5157 121.419C87.1423 122.184 84.5183 122.567 83.6437 122.567C82.8783 122.567 81.2383 121.2 78.7237 118.467C76.3183 115.624 73.4757 111.743 70.1957 106.823C66.9157 101.794 63.909 97.1471 61.1757 92.8831C58.5517 88.6191 55.545 83.7538 52.1557 78.2871C48.8757 72.7111 46.853 69.3218 46.0877 68.1191C39.0903 68.1191 33.6783 67.9004 29.8517 67.4631V91.8991C29.8517 98.4591 30.2343 105.675 30.9997 113.547C34.389 114.312 39.1997 114.695 45.4317 114.695C45.7597 115.57 45.9237 116.554 45.9237 117.647C45.9237 118.631 45.7597 119.342 45.4317 119.779L23.6197 119.287C15.3103 119.287 7.71167 119.724 0.823672 120.599C0.277005 119.943 0.0036719 119.014 0.0036719 117.811L0.167672 116.499C5.85301 115.187 9.57034 113.164 11.3197 110.431C12.741 108.244 13.6703 105.511 14.1077 102.231C15.4197 92.2818 16.0757 78.8338 16.0757 61.8871C16.0757 25.6978 15.0917 7.2751 13.1237 6.6191C11.0463 6.07244 7.43834 5.7991 2.29967 5.7991C1.86234 5.03377 1.64367 4.3231 1.64367 3.6671C1.64367 3.0111 1.86234 2.0271 2.29967 0.715101ZM72.3277 35.6471C72.3277 27.5564 70.0317 20.6684 65.4397 14.9831C60.957 9.29777 54.9437 6.45511 47.3997 6.45511C39.8557 6.45511 34.6077 6.67377 31.6557 7.11111C30.453 11.9218 29.8517 30.0711 29.8517 61.5591C33.7877 61.8871 39.2543 62.0511 46.2517 62.0511C53.249 62.0511 59.317 59.6458 64.4557 54.8351C69.7037 50.0244 72.3277 43.6284 72.3277 35.6471Z" fill="white"/>
</svg>
