<svg width="123" height="128" viewBox="0 0 123 128" fill="none" xmlns="http://www.w3.org/2000/svg">
<path d="M33.4114 1.91961V81.2419C33.4114 90.6722 35.8585 97.7748 40.7528 102.55C45.7664 107.325 52.6899 109.712 61.5234 109.712C70.4762 109.712 77.3998 107.325 82.294 102.55C87.3076 97.7748 89.8144 90.6722 89.8144 81.2419V1.91961H110.227V80.8838C110.227 91.0303 108.019 99.6251 103.602 106.668C99.185 113.711 93.2762 118.963 85.8751 122.425C78.4741 125.887 70.2972 127.618 61.3443 127.618C52.3915 127.618 44.2145 125.887 36.8135 122.425C29.5319 118.963 23.7423 113.711 19.445 106.668C15.1476 99.6251 12.9989 91.0303 12.9989 80.8838V1.91961H33.4114Z" fill="white"/>
</svg>
