<svg width="126" height="124" viewBox="0 0 126 124" fill="#ffffff" xmlns="http://www.w3.org/2000/svg">
<path d="M1.04967 1.7151L16.7937 2.2071C28.383 2.2071 37.1297 1.76977 43.0337 0.895102C43.6897 1.76977 44.0177 2.6991 44.0177 3.68311L43.6897 4.99511C37.895 6.3071 34.2323 8.00177 32.7017 10.0791C31.499 11.6098 30.679 14.0151 30.2417 17.2951C28.9297 30.0871 28.2737 48.2364 28.2737 71.7431C28.2737 85.8471 31.1163 96.8351 36.8017 104.707C42.487 112.579 51.343 116.515 63.3697 116.515C77.6923 116.515 87.587 112.688 93.0537 105.035C98.6297 97.2724 101.418 85.4644 101.418 69.6111V49.2751C101.418 29.3764 100.871 15.3818 99.7777 7.29111C97.263 6.96311 92.5617 6.7991 85.6737 6.7991C85.455 5.92444 85.3457 4.9951 85.3457 4.0111C85.3457 2.91777 85.455 2.15244 85.6737 1.7151L105.026 2.2071C113.335 2.2071 119.731 1.76977 124.214 0.895102C124.76 1.5511 125.034 2.48043 125.034 3.68311L124.87 4.99511C116.451 6.85377 111.859 12.5391 111.094 22.0511C109.891 36.1551 109.29 53.3751 109.29 73.7111C109.29 89.7831 105.299 102.138 97.3177 110.775C89.4457 119.303 77.6923 123.567 62.0577 123.567C53.7483 123.567 46.4777 122.528 40.2457 120.451C34.123 118.374 29.3123 115.75 25.8137 112.579C22.4243 109.408 19.691 105.527 17.6137 100.935C15.5363 96.3431 14.1697 92.0244 13.5137 87.9791C12.967 83.8244 12.6937 79.3418 12.6937 74.5311V49.4391C12.6937 40.5831 12.2017 26.5338 11.2177 7.29111C9.14034 6.96311 5.75101 6.7991 1.04967 6.7991C0.831006 6.03377 0.721672 5.1591 0.721672 4.17511C0.721672 3.19111 0.831006 2.37111 1.04967 1.7151Z" fill="white"/>
</svg>
